<svg width="1479" height="584" viewBox="0 0 1479 584" fill="none" xmlns="http://www.w3.org/2000/svg">
<path d="M475.396 526.93C485.802 484.133 496.193 440.133 512.193 376.523C527.802 312.93 538.99 269.336 550.193 226.93H398.193C388.599 269.336 377.396 313.336 361.396 376.93C345.802 440.523 334.99 484.133 323.396 526.93H475.396ZM812.994 394.523C788.994 394.93 768.197 395.727 744.197 395.727C720.994 395.727 703.4 395.336 686.197 394.523C685.4 400.133 683.79 406.133 682.197 411.727C677.79 428.523 672.197 442.523 664.994 442.523C655.79 442.523 656.603 431.336 666.994 388.93C679.4 340.93 684.197 334.133 691.79 334.133C698.197 334.133 698.994 341.336 692.994 366.133C691.79 370.133 689.79 375.336 688.994 380.93C701.4 380.133 724.603 379.727 748.993 379.727C776.197 379.727 797.4 380.133 815.79 380.93C818.994 371.727 822.197 363.727 823.79 356.133C843.79 276.93 812.994 257.727 695.79 257.727C600.994 257.727 556.994 278.133 531.79 378.93C503.4 492.93 525.79 532.133 646.603 532.133C745.79 532.133 784.603 512.93 806.993 423.336C809.4 414.523 811.4 404.93 812.994 394.523ZM1035.39 262.93C1029.79 276.93 1019 303.336 1005.39 328.523C999.794 339.336 991.794 353.727 984.201 368.133H982.591C998.591 304.523 1008.59 260.93 1021 217.336H878.997C869.388 258.133 858.201 302.523 846.201 350.133C830.591 412.93 814.997 477.727 801.794 526.93H943.794C950.201 496.133 957.794 465.727 967.388 428.93H970.591C974.998 444.133 969.794 477.727 967.794 512.133C967.388 523.727 970.591 526.93 983.794 526.93H1107C1109.39 456.523 1138.2 395.336 1069.39 391.727L1069.79 390.133C1143.39 382.93 1149.79 314.133 1173.79 262.93H1035.39ZM1342.19 262.93C1336.6 283.727 1319.79 352.93 1314.19 374.133C1310.99 387.336 1306.19 393.336 1299.4 393.336C1293.4 393.336 1290.6 389.336 1293.79 377.336C1303.79 336.93 1315.4 292.93 1323.79 262.93H1189.79C1185.4 282.523 1180.6 301.727 1174.6 326.133C1168.6 351.336 1162.6 372.133 1156.6 396.523C1145.79 442.93 1169.79 469.336 1230.99 469.336C1260.6 469.336 1278.99 464.133 1292.19 451.727L1294.19 452.523C1291.79 460.133 1289.4 468.133 1286.99 476.93C1280.99 500.133 1276.99 506.93 1267.79 506.93C1260.19 506.93 1259.4 500.523 1262.6 488.133C1262.99 486.133 1263.79 483.727 1264.6 480.93C1250.19 482.133 1233.4 482.93 1202.6 482.93C1173.4 482.93 1153.4 482.133 1137.79 480.93C1134.6 490.133 1132.19 498.133 1130.19 506.133C1117.4 556.523 1146.99 583.727 1255.79 583.727C1386.19 583.727 1406.6 554.133 1430.6 457.336C1436.99 432.133 1448.6 380.523 1454.19 358.523C1464.6 316.93 1471.4 290.133 1478.99 262.93H1342.19Z" fill="black"/>
<path d="M540.953 157.333C540.953 163.224 511.105 168 474.286 168C437.468 168 407.62 163.224 407.62 157.333C407.62 151.443 437.468 146.667 474.286 146.667C511.105 146.667 540.953 151.443 540.953 157.333Z" fill="black"/>
<path d="M486.286 157.333C486.286 190.471 480.914 217.333 474.286 217.333C467.658 217.333 462.286 190.471 462.286 157.333C462.286 124.196 467.658 97.3335 474.286 97.3335C480.914 97.3335 486.286 124.196 486.286 157.333Z" fill="black"/>
<path d="M648.953 48.6667C648.953 53.4453 624.744 57.3186 594.879 57.3186C565.015 57.3186 540.805 53.4453 540.805 48.6667C540.805 43.888 565.015 40.0146 594.879 40.0146C624.744 40.0146 648.953 43.888 648.953 48.6667Z" fill="black"/>
<path d="M604.612 48.6667C604.612 75.544 600.254 97.3333 594.878 97.3333C589.504 97.3333 585.145 75.544 585.145 48.6667C585.145 21.7893 589.504 0 594.878 0C600.254 0 604.612 21.7893 604.612 48.6667Z" fill="black"/>
<path d="M726.286 157C726.286 160.24 709.87 162.867 689.62 162.867C669.369 162.867 652.953 160.24 652.953 157C652.953 153.76 669.369 151.133 689.62 151.133C709.87 151.133 726.286 153.76 726.286 157Z" fill="black"/>
<path d="M696.22 157C696.22 175.225 693.265 190 689.62 190C685.974 190 683.02 175.225 683.02 157C683.02 138.775 685.974 124 689.62 124C693.265 124 696.22 138.775 696.22 157Z" fill="black"/>
<path d="M374.851 195.892L258.492 196.693L232.114 314.918L197.392 196.408L62.2746 197.163C62.2746 197.163 72.4649 214.524 70.9553 245.095C69.4456 275.666 0 526.274 0 526.274H114.736L149.082 376.438L193.24 525.897H290.237L374.851 195.892Z" fill="black"/>
</svg>
