<svg width="209" height="86" viewBox="0 0 209 86" fill="none" xmlns="http://www.w3.org/2000/svg">
<g filter="url(#filter0_d_4869_32911)">
<circle cx="45.5" cy="45.4371" r="28" fill="white" stroke="#E6E6E6"/>
<circle cx="107.5" cy="45.4371" r="28" fill="white" stroke="#E6E6E6"/>
<circle cx="169.5" cy="45.4371" r="28" fill="white" stroke="#E6E6E6"/>
</g>
<path d="M60.4677 44.9226C60.2386 39.5054 59.0833 26.8353 45.8183 26.4294C31.1998 26.4294 31.7288 40.2526 30.9521 44.9226C30.2636 49.0626 28.042 52.0197 30.9521 59.8666C32.6629 64.4796 39.1132 68.5556 45.8183 68.5528C52.1904 68.55 58.8298 64.6761 60.4677 61.0808C63.829 53.7022 60.6967 50.3398 60.4677 44.9226Z" fill="#D1D7DF"/>
<ellipse cx="45.7739" cy="45.8025" rx="11.2392" ry="12.9847" fill="#E6ECF3"/>
<path fill-rule="evenodd" clip-rule="evenodd" d="M57.0161 45.2858C56.7905 52.2323 51.846 57.7837 45.7794 57.7837C39.7128 57.7837 34.7683 52.2323 34.5427 45.2858C34.5374 45.4504 34.5347 45.6157 34.5347 45.7818C34.5347 52.9581 39.5691 58.7757 45.7794 58.7757C51.9897 58.7757 57.0241 52.9581 57.0241 45.7818C57.0241 45.6157 57.0214 45.4503 57.0161 45.2858Z" fill="#D3D9E1"/>
<rect x="55.4795" y="40.7164" width="6.80879" height="6.80879" rx="3.4044" fill="#E6ECF3"/>
<rect x="55.6309" y="42.6835" width="1.51306" height="3.02613" rx="0.756532" fill="#E6ECF3"/>
<rect width="6.80879" height="6.80879" rx="3.4044" transform="matrix(-1 0 0 1 36.75 40.7164)" fill="#E6ECF3"/>
<rect width="1.51306" height="3.02613" rx="0.756532" transform="matrix(-1 0 0 1 36.5986 42.6835)" fill="#E6ECF3"/>
<path d="M55.9568 36.5143C56.3621 37.4955 56.6686 38.6498 56.6686 40.8471C55.9878 40.8471 54.2856 41.528 50.9431 39.733C47.5484 37.9099 46.6788 36.05 45.8675 34.843C45.0628 36.5143 43.5773 38.0208 41.3799 39.3925C39.1825 40.7642 36.1599 40.6924 35.1592 40.8471C35.1592 39.4165 35.2854 37.9999 35.8313 36.6782C36.3773 35.3564 37.1774 34.1555 38.1861 33.1439C39.1949 32.1323 40.3924 31.3299 41.7104 30.7824C43.0283 30.2349 44.4409 29.9531 45.8675 29.9531C47.294 29.9531 48.7066 30.2349 50.0246 30.7824C51.3426 31.3299 52.5401 32.1323 53.5488 33.1439C54.5575 34.1555 55.4109 35.1926 55.9568 36.5143Z" fill="#D1D7DF"/>
<path d="M45.8041 37.4427C46.4479 36.0562 46.5469 34.9978 46.5469 34.5026C46.2684 32.9552 45.278 33.636 45.1852 34.0384C45.0923 34.4407 45.2161 35.0906 45.0923 36.7C44.9933 37.9874 43.7099 39.5473 42.9878 40.0424C43.6377 39.8464 45.1604 38.8292 45.8041 37.4427Z" fill="#D1D7DF"/>
<path d="M86.8852 45.6213C88.0751 53.3906 89.7683 55.5232 92.9104 59.4159C97.9077 67.0451 116.421 70.5921 123.473 57.8118C134.981 36.9534 120.312 22.9475 108.079 22.9474C97.9267 22.9474 96.4868 26.7529 94.7602 30.1354C88.7302 28.8141 85.9867 39.7546 86.8852 45.6213Z" fill="#D1D7DF"/>
<path d="M117.925 39.5488C114.165 34.2067 104.932 32.7815 99.4458 36.2814C93.9592 39.7812 92.7371 45.5937 93.5499 51.9653C93.8786 54.5422 94.2919 56.5646 94.5179 58.7454C95.2191 65.5122 104.45 68.8746 107.19 68.8746C111.502 68.8746 118.767 64.1368 119.673 58.7454C120.499 53.8328 120.414 54.2209 120.477 51.9653C120.541 49.7098 121.686 44.891 117.925 39.5488Z" fill="#E6ECF3"/>
<path fill-rule="evenodd" clip-rule="evenodd" d="M94.728 59.9586C97.1342 65.0566 104.635 67.592 107.088 67.592C111.248 67.592 118.072 63.4461 119.701 58.4977C119.686 58.5898 119.67 58.6838 119.654 58.7799C118.748 64.1789 111.487 68.9234 107.178 68.9234C104.604 68.9234 96.2947 65.9467 94.728 59.9586Z" fill="#D3D9E1"/>
<rect x="118.551" y="44.6885" width="9.42027" height="9.42027" rx="4.71014" fill="#E6ECF3"/>
<rect width="9.42027" height="9.42027" rx="4.71014" transform="matrix(-1 0 0 1 96.0996 44.6885)" fill="#E6ECF3"/>
<path d="M93.4927 51.3619V44.6781H95.9797L95.6954 50.6508L93.4927 51.3619Z" fill="#D1D7DF"/>
<path d="M120.614 51.3619V44.6781H118.127L118.411 50.6508L120.614 51.3619Z" fill="#D1D7DF"/>
<path d="M119.684 39.4707C120.193 40.7027 120.577 42.152 120.577 44.911C119.723 44.911 117.585 45.7659 113.389 43.5121C109.126 41.223 108.034 38.8878 107.016 37.3723C106.005 39.4707 104.14 41.3623 101.381 43.0846C98.622 44.8069 94.8268 44.7167 93.5703 44.911C93.5703 43.1147 93.7288 41.336 94.4143 39.6765C95.0997 38.0169 96.1044 36.509 97.371 35.2389C98.6375 33.9687 100.141 32.9612 101.796 32.2738C103.451 31.5863 105.224 31.2325 107.016 31.2325C108.807 31.2325 110.58 31.5863 112.235 32.2738C113.89 32.9612 115.394 33.9687 116.66 35.2389C117.927 36.509 118.998 37.8112 119.684 39.4707Z" fill="#D1D7DF"/>
<path d="M114.087 35.2744C113.187 33.05 110.88 31.6783 107.322 32.1974C104.976 32.4834 103.569 34.088 102.083 35.2744C100.597 36.4607 98.6423 39.1299 100.206 41.7621C101.77 44.3942 112.914 47.3971 116.745 42.2811C118.812 39.5214 114.986 37.4987 114.087 35.2744Z" fill="#D1D7DF"/>
<path d="M167.016 22.2061C175.497 21.8829 178.585 26.0902 179.237 28.3523C184.456 28.3523 188.218 32.2241 188.87 37.3947C189.392 41.5312 188.069 43.6367 186.238 45.9513C185.237 47.2157 184.183 47.6441 182.851 48.0344C181.008 48.5744 180.849 48.7287 176.539 48.7287H169.072C163.36 48.7287 161.136 47.949 158.526 46.7999C155.591 45.5073 150.059 43.2509 150.059 35.0728C150.059 28.5356 158.536 22.5292 167.016 22.2061Z" fill="#D1D7DF"/>
<path d="M180.766 38.0077C176.832 32.4189 167.173 30.928 161.434 34.5894C155.694 38.2508 154.415 44.3316 155.266 50.9973C155.609 53.6931 156.042 55.8088 156.278 58.0903C157.012 65.1693 166.669 68.687 169.535 68.687C174.046 68.687 181.646 63.7305 182.594 58.0903C183.458 52.9509 183.369 53.357 183.436 50.9973C183.503 48.6376 184.701 43.5964 180.766 38.0077Z" fill="#E6ECF3"/>
<path fill-rule="evenodd" clip-rule="evenodd" d="M156.509 59.3779C159.036 64.6991 166.868 67.3454 169.431 67.3454C173.789 67.3454 180.944 62.9952 182.634 57.808C182.617 57.9117 182.599 58.0179 182.581 58.1265C181.633 63.7746 174.037 68.7381 169.529 68.7381C166.839 68.7381 158.16 65.6301 156.509 59.3779Z" fill="#D3D9E1"/>
<rect x="181.424" y="43.3846" width="9.85507" height="9.85507" rx="4.92753" fill="#E6ECF3"/>
<rect width="9.85507" height="9.85507" rx="4.92753" transform="matrix(-1 0 0 1 157.935 43.3846)" fill="#E6ECF3"/>
<path d="M155.288 51.0978V43.3331H158.54L155.288 51.0978Z" fill="#D1D7DF"/>
<path d="M183.5 51.0978V43.3331H180.247L183.5 51.0978Z" fill="#D1D7DF"/>
<path d="M182.689 38.0887C183.221 39.3776 183.624 40.8938 183.624 43.7801C182.729 43.7801 179.732 43.4061 174.897 41.9101C170.061 40.4141 166.64 37.8448 165.574 36.2593C165.601 36.7472 165.574 39.0237 163.975 40.7312C162.249 42.5749 159.346 44.1866 155.37 43.7801C155.37 41.9009 155.536 40.0401 156.253 38.304C156.97 36.5679 158.021 34.9904 159.346 33.6616C160.671 32.3328 162.244 31.2787 163.975 30.5596C165.707 29.8405 167.562 29.4703 169.436 29.4703C171.31 29.4703 173.165 29.8405 174.897 30.5596C176.628 31.2787 178.201 32.3328 179.526 33.6616C180.851 34.9904 181.972 36.3526 182.689 38.0887Z" fill="#D1D7DF"/>
<defs>
<filter id="filter0_d_4869_32911" x="0" y="0.937134" width="209" height="85" filterUnits="userSpaceOnUse" color-interpolation-filters="sRGB">
<feFlood flood-opacity="0" result="BackgroundImageFix"/>
<feColorMatrix in="SourceAlpha" type="matrix" values="0 0 0 0 0 0 0 0 0 0 0 0 0 0 0 0 0 0 127 0" result="hardAlpha"/>
<feMorphology radius="4" operator="dilate" in="SourceAlpha" result="effect1_dropShadow_4869_32911"/>
<feOffset dx="-3" dy="-2"/>
<feGaussianBlur stdDeviation="5"/>
<feColorMatrix type="matrix" values="0 0 0 0 0.439216 0 0 0 0 0.564706 0 0 0 0 0.690196 0 0 0 0.1 0"/>
<feBlend mode="normal" in2="BackgroundImageFix" result="effect1_dropShadow_4869_32911"/>
<feBlend mode="normal" in="SourceGraphic" in2="effect1_dropShadow_4869_32911" result="shape"/>
</filter>
</defs>
</svg>
