<svg width="188" height="201" viewBox="0 0 188 201" fill="none" xmlns="http://www.w3.org/2000/svg">
<g filter="url(#filter0_d_2751_23654)">
<g filter="url(#filter1_d_2751_23654)">
<path d="M145.188 91.4371H73.9375C72.9927 91.4371 72.0865 91.0618 71.4184 90.3937C70.7503 89.7256 70.375 88.8195 70.375 87.8746C70.375 86.9298 70.7503 86.0237 71.4184 85.3556C72.0865 84.6875 72.9927 84.3121 73.9375 84.3121H134.5C135.445 84.3121 136.351 83.9368 137.019 83.2687C137.687 82.6006 138.062 81.6945 138.062 80.7496C138.062 79.8048 137.687 78.8987 137.019 78.2306C136.351 77.5625 135.445 77.1871 134.5 77.1871H73.9375C71.103 77.1871 68.3846 78.3131 66.3803 80.3174C64.376 82.3217 63.25 85.0401 63.25 87.8746V144.875C63.25 147.709 64.376 150.428 66.3803 152.432C68.3846 154.436 71.103 155.562 73.9375 155.562H145.188C147.077 155.562 148.889 154.811 150.226 153.475C151.562 152.139 152.312 150.327 152.312 148.437V98.5621C152.312 96.6725 151.562 94.8602 150.226 93.524C148.889 92.1878 147.077 91.4371 145.188 91.4371ZM129.156 127.062C128.099 127.062 127.066 126.749 126.187 126.162C125.309 125.574 124.624 124.74 124.219 123.763C123.815 122.787 123.709 121.712 123.915 120.676C124.121 119.639 124.63 118.687 125.378 117.94C126.125 117.192 127.077 116.684 128.114 116.477C129.15 116.271 130.225 116.377 131.201 116.781C132.178 117.186 133.012 117.871 133.599 118.75C134.187 119.628 134.5 120.661 134.5 121.718C134.5 123.136 133.937 124.495 132.935 125.497C131.933 126.499 130.574 127.062 129.156 127.062Z" fill="url(#paint0_linear_2751_23654)"/>
</g>
<circle cx="129" cy="121.937" r="6" fill="white"/>
<g clip-path="url(#clip0_2751_23654)">
<ellipse cx="97.2628" cy="81.5065" rx="12" ry="13.5" transform="rotate(-14.9967 97.2628 81.5065)" fill="white"/>
<path d="M105.182 81.4439C105.492 82.0488 105.548 82.752 105.339 83.3987C105.131 84.0454 104.673 84.5827 104.069 84.8924L97.2257 88.395L94.8906 83.8332L101.733 80.3305C102.338 80.0208 103.042 79.9642 103.688 80.173C104.335 80.3818 104.872 80.8389 105.182 81.4439ZM112.554 73.3522C114.055 76.2845 114.653 79.5961 114.272 82.8681C113.891 86.1402 112.548 89.2257 110.413 91.7346C108.279 94.2435 105.448 96.063 102.279 96.9631C99.1103 97.8632 95.7458 97.8034 92.6109 96.7913C89.4761 95.7792 86.7118 93.8603 84.6676 91.2771C82.6234 88.694 81.3911 85.5627 81.1265 82.2791C80.8619 78.9956 81.5769 75.7074 83.1811 72.8303C84.7854 69.9531 87.2067 67.6163 90.1391 66.1153C94.072 64.1074 98.6409 63.7416 102.843 65.0984C107.046 66.4551 110.538 69.4235 112.554 73.3522ZM107.463 80.2763C107.06 79.4894 106.46 78.8202 105.722 78.3335C104.984 77.8469 104.133 77.5595 103.251 77.4992C103.445 76.6551 103.422 75.7756 103.184 74.9427C102.946 74.1099 102.501 73.351 101.891 72.7368C101.28 72.1226 100.524 71.6732 99.6921 71.4305C98.8607 71.1879 97.9813 71.16 97.1361 71.3493L96.4794 70.0663C96.3245 69.7638 96.0559 69.5353 95.7325 69.4309C95.4092 69.3265 95.0576 69.3548 94.7551 69.5096C94.4526 69.6644 94.2241 69.9331 94.1197 70.2564C94.0153 70.5798 94.0436 70.9314 94.1984 71.2339L94.7822 72.3743L92.5013 73.5419L91.9175 72.4014C91.7627 72.099 91.494 71.8704 91.1707 71.766C90.8473 71.6616 90.4957 71.6899 90.1932 71.8447C89.8908 71.9996 89.6622 72.2682 89.5578 72.5916C89.4534 72.9149 89.4817 73.2665 89.6366 73.569L90.2203 74.7095L87.9394 75.877C87.6369 76.0318 87.4084 76.3005 87.304 76.6238C87.1996 76.9472 87.2279 77.2988 87.3827 77.6013C87.5376 77.9037 87.8062 78.1323 88.1296 78.2367C88.4529 78.3411 88.8045 78.3128 89.107 78.1579L94.9448 89.5626C94.6423 89.7174 94.4137 89.9861 94.3093 90.3094C94.2049 90.6328 94.2333 90.9844 94.3881 91.2869C94.5429 91.5893 94.8116 91.8179 95.1349 91.9223C95.4583 92.0267 95.8099 91.9984 96.1123 91.8435L98.3933 90.676L98.9771 91.8164C99.1319 92.1189 99.4005 92.3475 99.7239 92.4519C100.047 92.5563 100.399 92.528 100.701 92.3731C101.004 92.2183 101.232 91.9497 101.337 91.6263C101.441 91.3029 101.413 90.9514 101.258 90.6489L100.674 89.5084L102.955 88.3409L103.539 89.4813C103.694 89.7838 103.962 90.0124 104.286 90.1168C104.609 90.2212 104.961 90.1928 105.263 90.038C105.566 89.8832 105.794 89.6145 105.899 89.2912C106.003 88.9678 105.975 88.6162 105.82 88.3138L105.236 87.1733C106.446 86.554 107.36 85.4794 107.778 84.186C108.195 82.8925 108.082 81.4862 107.463 80.2763ZM100.539 75.1849C100.229 74.5799 99.6918 74.1228 99.0451 73.914C98.3984 73.7052 97.6952 73.7618 97.0902 74.0715L91.3879 76.9904L93.723 81.5523L99.4254 78.6333C100.03 78.3237 100.487 77.7864 100.696 77.1397C100.905 76.493 100.848 75.7898 100.539 75.1849Z" fill="url(#paint1_linear_2751_23654)"/>
</g>
<g clip-path="url(#clip1_2751_23654)">
<ellipse cx="127.5" cy="82.4371" rx="9.5" ry="13.5" fill="white"/>
<path d="M132.754 67.4806C129.874 66.1656 126.669 65.7341 123.543 66.2407C120.418 66.7474 117.513 68.1694 115.196 70.3269C112.879 72.4844 111.254 75.2805 110.526 78.3617C109.798 81.4428 110.001 84.6707 111.107 87.6369C112.214 90.6032 114.175 93.1748 116.743 95.0264C119.311 96.8779 122.371 97.9264 125.535 98.0392C128.699 98.152 131.825 97.324 134.518 95.66C137.212 93.996 139.351 91.5706 140.666 88.6907C142.425 84.8282 142.58 80.4257 141.096 76.4493C139.613 72.4729 136.613 69.2474 132.754 67.4806ZM124.716 89.5297L124.156 89.274L123.645 90.3941C123.509 90.6911 123.261 90.9222 122.955 91.0363C122.649 91.1505 122.31 91.1384 122.013 91.0027C121.716 90.8671 121.485 90.619 121.371 90.313C121.257 90.0071 121.269 89.6683 121.405 89.3712L121.916 88.2511L119.676 87.2282C119.379 87.0926 119.148 86.8445 119.034 86.5385C118.92 86.2325 118.932 85.8937 119.067 85.5967C119.203 85.2996 119.451 85.0686 119.757 84.9544C120.063 84.8403 120.402 84.8524 120.699 84.988L125.739 87.2895C126.185 87.493 126.693 87.5111 127.152 87.3399C127.611 87.1686 127.983 86.8221 128.187 86.3765C128.39 85.9309 128.408 85.4227 128.237 84.9638C128.066 84.5048 127.719 84.1326 127.274 83.9292L123.913 82.3948C122.874 81.9201 122.065 81.0518 121.666 79.9808C121.266 78.9099 121.308 77.7242 121.783 76.6844C122.258 75.6447 123.126 74.8361 124.197 74.4366C125.268 74.0371 126.454 74.0794 127.493 74.5541L128.054 74.8098L128.565 73.6897C128.701 73.3927 128.949 73.1616 129.255 73.0475C129.561 72.9334 129.899 72.9454 130.197 73.0811C130.494 73.2167 130.725 73.4648 130.839 73.7708C130.953 74.0768 130.941 74.4156 130.805 74.7126L130.294 75.8327L132.534 76.8556C132.831 76.9913 133.062 77.2394 133.176 77.5453C133.29 77.8513 133.278 78.1901 133.143 78.4872C133.007 78.7842 132.759 79.0153 132.453 79.1294C132.147 79.2435 131.808 79.2315 131.511 79.0958L126.471 76.7943C126.025 76.5909 125.517 76.5727 125.058 76.744C124.599 76.9152 124.227 77.2617 124.023 77.7073C123.82 78.1529 123.802 78.6611 123.973 79.1201C124.144 79.579 124.491 79.9512 124.936 80.1546L128.297 81.689C129.336 82.1637 130.145 83.0321 130.544 84.103C130.944 85.1739 130.902 86.3596 130.427 87.3994C129.952 88.4391 129.084 89.2477 128.013 89.6472C126.942 90.0467 125.756 90.0044 124.716 89.5297Z" fill="url(#paint2_linear_2751_23654)"/>
</g>
<rect x="78" y="90.9371" width="71" height="19" fill="#F1F2F4"/>
</g>
<defs>
<filter id="filter0_d_2751_23654" x="-14" y="0.937134" width="212" height="221" filterUnits="userSpaceOnUse" color-interpolation-filters="sRGB">
<feFlood flood-opacity="0" result="BackgroundImageFix"/>
<feColorMatrix in="SourceAlpha" type="matrix" values="0 0 0 0 0 0 0 0 0 0 0 0 0 0 0 0 0 0 127 0" result="hardAlpha"/>
<feMorphology radius="4" operator="dilate" in="SourceAlpha" result="effect1_dropShadow_2751_23654"/>
<feOffset dx="-14" dy="-4"/>
<feGaussianBlur stdDeviation="22.5"/>
<feColorMatrix type="matrix" values="0 0 0 0 0.658824 0 0 0 0 0.690196 0 0 0 0 0.745098 0 0 0 0.2 0"/>
<feBlend mode="normal" in2="BackgroundImageFix" result="effect1_dropShadow_2751_23654"/>
<feBlend mode="normal" in="SourceGraphic" in2="effect1_dropShadow_2751_23654" result="shape"/>
</filter>
<filter id="filter1_d_2751_23654" x="50.25" y="65.1871" width="109.062" height="98.375" filterUnits="userSpaceOnUse" color-interpolation-filters="sRGB">
<feFlood flood-opacity="0" result="BackgroundImageFix"/>
<feColorMatrix in="SourceAlpha" type="matrix" values="0 0 0 0 0 0 0 0 0 0 0 0 0 0 0 0 0 0 127 0" result="hardAlpha"/>
<feOffset dx="-3" dy="-2"/>
<feGaussianBlur stdDeviation="5"/>
<feComposite in2="hardAlpha" operator="out"/>
<feColorMatrix type="matrix" values="0 0 0 0 0.3852 0 0 0 0 0.454108 0 0 0 0 0.535 0 0 0 0.07 0"/>
<feBlend mode="normal" in2="BackgroundImageFix" result="effect1_dropShadow_2751_23654"/>
<feBlend mode="normal" in="SourceGraphic" in2="effect1_dropShadow_2751_23654" result="shape"/>
</filter>
<linearGradient id="paint0_linear_2751_23654" x1="107.781" y1="77.1871" x2="107.781" y2="155.562" gradientUnits="userSpaceOnUse">
<stop stop-color="#FBFBFB"/>
<stop offset="1" stop-color="#D7DAE0"/>
</linearGradient>
<linearGradient id="paint1_linear_2751_23654" x1="111" y1="68.9374" x2="89.4995" y2="95.9374" gradientUnits="userSpaceOnUse">
<stop stop-color="#EBF1F8"/>
<stop offset="1" stop-color="#D2D8E1"/>
</linearGradient>
<linearGradient id="paint2_linear_2751_23654" x1="139" y1="71.4373" x2="119.456" y2="96.6033" gradientUnits="userSpaceOnUse">
<stop stop-color="#EBF1F8"/>
<stop offset="1" stop-color="#D2D8E1"/>
</linearGradient>
<clipPath id="clip0_2751_23654">
<rect width="40.9983" height="40.9983" fill="white" transform="translate(69 72.6182) rotate(-27.107)"/>
</clipPath>
<clipPath id="clip1_2751_23654">
<rect width="39.403" height="39.403" fill="white" transform="translate(116.366 55.9371) rotate(24.5416)"/>
</clipPath>
</defs>
</svg>
